HIERARCHY
ROOT Hips
{
	OFFSET 0.000000 0.000000 0.000000 
	CHANNELS 6 Xposition Yposition Zposition Zrotation Yrotation Xrotation
	JOINT LeftUpLeg
	{
		OFFSET 1.363060 -1.794630 0.839290 
		CHANNELS 3 Zrotation Yrotation Xrotation
		JOINT LeftLeg
		{
			OFFSET 2.448110 -6.726130 0.000000 
			CHANNELS 3 Zrotation Yrotation Xrotation
			JOINT LeftFoot
			{
				OFFSET 2.562200 -7.039590 0.000000 
				CHANNELS 3 Zrotation Yrotation Xrotation
				JOINT LeftToeBase
				{
					OFFSET 0.157640 -0.433110 2.322550 
					CHANNELS 3 Zrotation Yrotation Xrotation
					End Site
					{
						OFFSET 0.000000 0.000000 0.000000 
					}
				}
			}
		}
	}
	JOINT RightUpLeg
	{
		OFFSET -1.305520 -1.794630 0.839290 
		CHANNELS 3 Zrotation Yrotation Xrotation
		JOINT RightLeg
		{
			OFFSET -2.542530 -6.985550 0.000000 
			CHANNELS 3 Zrotation Yrotation Xrotation
			JOINT RightFoot
			{
				OFFSET -2.568260 -7.056230 0.000000 
				CHANNELS 3 Zrotation Yrotation Xrotation
				JOINT RightToeBase
				{
					OFFSET -0.164730 -0.452590 2.363150 
					CHANNELS 3 Zrotation Yrotation Xrotation
					End Site
					{
						OFFSET 0.000000 0.000000 0.000000 
					}
				}
			}
		}
	}
	JOINT Spine
	{
		OFFSET 0.028270 2.035590 -0.193380 
		CHANNELS 3 Zrotation Yrotation Xrotation
		JOINT Spine1
		{
			OFFSET 0.056720 2.048850 -0.042750 
			CHANNELS 3 Zrotation Yrotation Xrotation
			JOINT Neck1
			{
				OFFSET -0.054170 1.746240 0.172020 
				CHANNELS 3 Zrotation Yrotation Xrotation
				JOINT Head
				{
					OFFSET 0.104070 1.761360 -0.123970 
					CHANNELS 3 Zrotation Yrotation Xrotation
					End Site
					{
						OFFSET 0.000000 0.000000 0.000000 
					}
				}
			}
			JOINT LeftArm
			{
				OFFSET 3.362410 1.200890 -0.311210 
				CHANNELS 3 Zrotation Yrotation Xrotation
				JOINT LeftForeArm
				{
					OFFSET 4.983000 -0.000000 -0.000000 
					CHANNELS 3 Zrotation Yrotation Xrotation
					JOINT LeftHand
					{
						OFFSET 3.483560 -0.000000 -0.000000 
						CHANNELS 3 Zrotation Yrotation Xrotation
						JOINT LeftHandIndex1
						{
							OFFSET 0.715260 -0.000000 -0.000000 
							CHANNELS 3 Zrotation Yrotation Xrotation
							End Site
							{
								OFFSET 0.000000 0.000000 0.000000 
							}
						}
					}
				}
			}
			JOINT RightArm
			{
				OFFSET -3.136600 1.374050 -0.404650 
				CHANNELS 3 Zrotation Yrotation Xrotation
				JOINT RightForeArm
				{
					OFFSET -5.241900 -0.000000 -0.000000 
					CHANNELS 3 Zrotation Yrotation Xrotation
					JOINT RightHand
					{
						OFFSET -3.444170 -0.000000 -0.000000 
						CHANNELS 3 Zrotation Yrotation Xrotation
						JOINT RightHandIndex1
						{
							OFFSET -0.622530 -0.000000 -0.000000 
							CHANNELS 3 Zrotation Yrotation Xrotation
							End Site
							{
								OFFSET 0.000000 0.000000 0.000000 
							}
						}
					}
				}
			}
		}
	}
}
MOTION
Frames: 18
Frame Time: 0.041667
-0.948292 18.390556 21.422805 178.757151 -1.577973 -151.170980 -42.609091 -29.138790 -22.986358 2.702258 7.786172 18.584312 -0.681324 -11.564543 -33.652139 3.044800 -10.767300 -31.499000 48.465593 26.076637 -20.498974 -2.686709 -6.212407 14.250195 -1.598383 6.610087 -36.847185 -1.271100 7.145800 -20.148100 3.279464 -3.811570 -6.074934 -3.107570 -2.599395 17.396007 7.621923 0.928456 22.326541 1.606800 1.649800 4.689000 -107.202806 -4.290571 14.727496 19.325335 -21.475091 -3.443706 -0.490187 0.239752 -7.440497 -7.125000 0.000000 0.000000 102.785439 -5.218150 11.520740 -22.041704 31.932891 -5.748508 0.016966 -0.359533 -3.661985 7.125000 0.000000 0.000000 
-0.947374 18.386988 21.425965 178.781860 -1.501582 -150.899482 -42.414694 -29.222048 -23.340046 2.691936 7.816216 18.570142 -0.626128 -11.407012 -33.704087 3.108100 -10.868100 -31.836200 48.226269 26.650099 -20.879129 -2.656917 -6.264515 14.211766 -1.656325 6.283825 -36.862075 -1.419200 7.534000 -21.307400 3.375660 -3.656907 -6.160694 -2.789601 -2.578781 17.587742 7.548026 0.793662 22.109459 1.544400 1.571900 4.596900 -107.252531 -4.688096 14.765406 19.025858 -21.002770 -3.304217 -0.476759 0.265170 -7.187799 -7.125000 0.000000 0.000000 102.741448 -5.562481 13.966185 -23.177468 33.206130 -6.301276 -0.011769 -0.308882 -9.835717 7.125000 0.000000 0.000000 
-0.950738 18.381890 21.426271 178.859294 -1.531787 -150.795453 -42.306151 -29.201986 -23.463315 2.691778 7.809599 18.525148 -0.635846 -11.412603 -33.699491 3.227300 -11.054300 -32.463100 48.237407 26.759279 -20.989431 -2.644086 -6.267546 14.172084 -1.656701 6.253015 -36.853258 -1.429800 7.560900 -21.388000 3.476448 -3.545291 -6.175567 -2.594402 -2.553273 17.773011 7.411396 0.651790 21.932368 1.457400 1.491500 4.518200 -107.262912 -5.004960 14.842120 18.817079 -20.674504 -3.212101 -0.452292 0.286506 -7.068912 -7.125000 0.000000 0.000000 102.733153 -5.658457 13.944573 -23.336112 33.379586 -6.389658 0.003035 -0.322887 -10.167219 7.125000 0.000000 0.000000 
-0.956753 18.376079 21.425557 178.912761 -1.538362 -150.683653 -42.238919 -29.211280 -23.587563 2.688456 7.822316 18.531040 -0.615696 -11.367496 -33.744024 3.556100 -11.545100 -34.141100 48.201739 26.896656 -21.108887 -2.633760 -6.277927 14.154859 -1.659465 6.226644 -36.873969 -1.363800 7.391600 -20.880700 3.548424 -3.436876 -6.202259 -2.447621 -2.531478 17.895063 7.412505 0.556203 22.290223 1.446900 1.474700 4.600100 -107.280646 -5.179705 14.895216 18.670241 -20.439251 -3.150871 -0.425204 0.309889 -6.990112 -7.125000 0.000000 0.000000 102.735181 -5.718296 13.839235 -23.416818 33.470171 -6.438351 0.013539 -0.334223 -10.281235 7.125000 0.000000 0.000000 
-0.961340 18.370371 21.426475 178.887869 -1.462723 -150.566338 -42.236657 -29.303487 -23.668303 2.675362 7.827689 18.509585 -0.548817 -11.246217 -33.867962 3.724200 -11.784000 -34.972200 48.006295 27.306890 -21.219554 -2.618815 -6.298309 14.122175 -1.727950 5.947080 -36.921136 -1.243900 7.071700 -19.928000 3.578778 -3.307757 -6.275242 -2.208198 -2.516272 17.998543 7.092513 0.603938 22.245697 1.339600 1.486400 4.558000 -107.287528 -5.307355 15.042429 18.554367 -20.243473 -3.104082 -0.398424 0.326871 -7.091888 -7.125000 0.000000 0.000000 102.706970 -5.693437 13.199269 -23.378982 33.427601 -6.425367 0.032057 -0.355593 -9.739107 7.125000 0.000000 0.000000 
-0.965826 18.365171 21.425150 178.900834 -1.349621 -150.489025 -42.261134 -29.316005 -23.623993 2.665233 7.770907 18.336183 -0.513572 -11.180544 -33.914726 3.670400 -11.708300 -34.707800 47.908065 27.498638 -21.314846 -2.614498 -6.314288 14.127190 -1.713210 5.926979 -36.854782 -1.126400 6.741300 -18.951200 3.642801 -3.037420 -6.325396 -1.791043 -2.456589 18.212289 6.665291 0.518355 22.180662 1.160900 1.434600 4.485800 -107.301854 -5.406303 16.339736 18.319558 -19.809231 -3.014026 -0.419658 0.342641 -6.189803 -7.125000 0.000000 0.000000 102.701624 -5.625232 11.224512 -23.038424 33.040366 -6.254756 0.079914 -0.409059 -6.867426 7.125000 0.000000 0.000000 
-0.971433 18.358137 21.420154 178.949913 -1.265403 -150.384901 -42.252227 -29.220956 -23.648735 2.662951 7.720411 18.190759 -0.537290 -11.237360 -33.909052 3.691600 -11.738300 -34.812300 47.960127 27.297103 -21.445306 -2.624724 -6.299051 14.102647 -1.577518 6.307371 -36.672877 -1.096500 6.654200 -18.694800 3.572528 -3.018488 -6.296120 -1.883522 -2.434354 18.421015 6.494343 0.633336 22.006686 1.100000 1.475800 4.445000 -107.179063 -5.496594 17.005908 18.165325 -19.541585 -2.951012 -0.440986 0.353415 -5.266323 -7.125000 0.000000 0.000000 102.752383 -5.527973 11.352695 -22.932246 32.956591 -6.225914 0.054690 -0.398267 -6.741434 7.125000 0.000000 0.000000 
-0.977448 18.352428 21.418116 178.998136 -1.170512 -150.340935 -42.248033 -29.112184 -23.671150 2.662785 7.704715 18.152549 -0.534746 -11.263885 -33.981215 3.626500 -11.646100 -34.491300 48.025465 27.158283 -21.447391 -2.631274 -6.247468 13.983162 -1.485361 6.569090 -36.525721 -1.084200 6.618000 -18.588400 3.494376 -2.983965 -6.273783 -1.944126 -2.409173 18.538012 6.455635 0.715009 22.025126 1.071200 1.524100 4.442900 -107.042920 -5.485445 17.473294 18.148132 -19.495032 -2.948011 -0.444015 0.359476 -4.710544 -7.125000 0.000000 0.000000 102.836949 -5.481759 11.546225 -22.838870 32.862435 -6.186641 0.053659 -0.401020 -6.505323 7.125000 0.000000 0.000000 
-0.983870 18.349880 21.422397 179.021580 -1.063950 -150.298016 -42.208405 -29.136856 -23.712674 2.656163 7.701434 18.123620 -0.480527 -11.173117 -34.095189 3.420800 -11.347000 -33.459200 47.951243 27.355846 -21.510613 -2.622457 -6.246725 13.935983 -1.499588 6.480952 -36.508669 -1.042800 6.494300 -18.225700 3.460475 -2.964064 -6.248863 -1.962754 -2.398274 18.585818 6.438485 0.810034 22.005107 1.066200 1.572400 4.434100 -106.975232 -5.541708 17.541807 18.168773 -19.523596 -2.955308 -0.446309 0.358842 -4.587738 -7.125000 0.000000 0.000000 102.909024 -5.420247 11.728787 -22.820933 32.852006 -6.184107 0.052754 -0.401889 -6.508564 7.125000 0.000000 0.000000 
-0.990089 18.344375 21.424742 179.055310 -0.929911 -150.058422 -42.043546 -29.293013 -24.004167 2.639356 7.715805 18.077787 -0.411328 -11.029059 -34.234567 3.307400 -11.176800 -32.878500 47.722991 27.713215 -21.948858 -2.605534 -6.333924 14.046842 -1.489927 6.417316 -36.531136 -1.069000 6.573000 -18.456300 3.508032 -2.954265 -6.174196 -1.954578 -2.400771 18.861998 6.403062 0.874197 21.820309 1.073500 1.583200 4.413100 -107.017611 -5.857231 17.410163 18.097898 -19.426095 -2.920966 -0.447978 0.367518 -4.243588 -7.125000 0.000000 0.000000 102.874842 -5.214137 12.045347 -22.823726 32.838469 -6.162448 0.045433 -0.382581 -6.325455 7.125000 0.000000 0.000000 
-0.996206 18.346006 21.420256 179.094745 -0.823891 -150.179656 -42.148920 -29.172700 -23.824543 2.637381 7.677638 18.003884 -0.353693 -10.962125 -34.362670 3.361900 -11.259100 -33.158800 47.810348 27.626236 -21.761539 -2.610828 -6.292842 13.988787 -1.478765 6.488862 -36.504574 -1.127300 6.743900 -18.958700 3.513248 -2.917547 -6.005084 -1.952008 -2.377991 19.024798 6.349578 0.875475 21.681732 1.053900 1.570100 4.393200 -106.998407 -6.061681 17.510124 18.065494 -19.379955 -2.906460 -0.449425 0.369319 -3.977182 -7.125000 0.000000 0.000000 102.879850 -5.058707 12.347106 -22.753785 32.790028 -6.155995 0.041643 -0.391966 -5.943608 7.125000 0.000000 0.000000 
-1.000080 18.344477 21.422499 179.122309 -0.695314 -150.121975 -42.200145 -28.993211 -23.913150 2.639341 7.696977 18.062465 -0.359156 -11.004694 -34.429735 3.517500 -11.489000 -33.947400 47.788369 27.782608 -21.790620 -2.602464 -6.279182 13.926697 -1.468837 6.496954 -36.473684 -1.110800 6.696000 -18.817700 3.573936 -2.868181 -6.118199 -1.824810 -2.378512 18.880120 6.255356 0.856350 21.775015 1.036700 1.560300 4.405800 -107.020791 -5.901259 17.931439 18.155387 -19.502220 -2.952215 -0.456510 0.365414 -3.725621 -7.125000 0.000000 0.000000 102.788645 -5.105314 12.620087 -22.692847 32.691875 -6.105720 0.041153 -0.385432 -6.010973 7.125000 0.000000 0.000000 
-1.009458 18.342438 21.421684 179.184457 -0.575620 -150.155912 -42.205386 -29.083261 -23.799771 2.627647 7.689752 18.031354 -0.207301 -10.738913 -34.677341 3.562800 -11.554800 -34.174500 47.821331 27.840668 -21.697120 -2.599085 -6.252454 13.871281 -1.467729 6.529421 -36.485885 -1.111500 6.698000 -18.823800 3.505381 -2.845277 -5.968184 -1.925179 -2.346490 19.071809 6.270211 0.895901 21.612377 1.035600 1.569900 4.375500 -106.917867 -5.928002 18.386957 18.228087 -19.614292 -2.990367 -0.460305 0.367632 -3.222339 -7.125000 0.000000 0.000000 102.831186 -4.918805 12.790600 -22.617240 32.615756 -6.070295 0.041981 -0.389134 -6.003633 7.125000 0.000000 0.000000 
-1.013230 18.342030 21.423519 179.294024 -0.433496 -150.090967 -42.053003 -29.072564 -23.894991 2.625511 7.695609 18.031847 -0.162300 -10.691130 -34.854840 3.518100 -11.490000 -33.950700 47.858911 28.011293 -21.795783 -2.582103 -6.277145 13.903926 -1.458970 6.542596 -36.486981 -1.184200 6.906100 -19.437500 3.498640 -2.816183 -5.987175 -1.964139 -2.327090 19.057760 6.340490 0.950112 21.736697 1.062900 1.609900 4.405700 -106.834614 -5.820376 18.772953 18.320904 -19.749359 -3.036888 -0.464549 0.366994 -2.883932 -7.125000 0.000000 0.000000 102.903621 -4.922986 12.756452 -22.644349 32.662724 -6.096967 0.043981 -0.394087 -5.589112 7.125000 0.000000 0.000000 
-1.015269 18.342743 21.425252 179.322016 -0.311385 -150.011205 -42.017714 -28.970603 -24.053994 2.628407 7.730830 18.109005 -0.159666 -10.679374 -34.875081 3.641300 -11.667100 -34.564200 47.822387 28.122433 -21.873986 -2.575618 -6.273966 13.853361 -1.456300 6.486350 -36.415799 -1.225300 7.020600 -19.776300 3.639426 -2.784269 -6.222531 -1.760196 -2.348782 18.778433 6.321762 0.943970 21.888183 1.076400 1.614600 4.414000 -106.951073 -5.558960 19.102375 18.402891 -19.862016 -3.082627 -0.472543 0.367747 -2.413831 -7.125000 0.000000 0.000000 102.811987 -5.187912 12.852057 -22.750463 32.768526 -6.155183 0.046459 -0.395295 -5.552065 7.125000 0.000000 0.000000 
-1.019449 18.340297 21.423111 179.302322 -0.241265 -149.982432 -42.098246 -28.912460 -24.069953 2.626582 7.738739 18.127506 -0.143871 -10.645940 -34.885317 3.730700 -11.793100 -35.004100 47.826621 28.096114 -21.783940 -2.578702 -6.209101 13.677412 -1.456819 6.467275 -36.356777 -1.242100 7.066900 -19.913600 3.696904 -2.776992 -6.359185 -1.641608 -2.367558 18.653459 6.336561 0.955751 21.916191 1.089900 1.623000 4.399200 -107.015889 -5.474684 18.911118 18.486262 -19.991625 -3.116788 -0.474658 0.360941 -2.452236 -7.125000 0.000000 0.000000 102.763091 -5.380852 13.229693 -22.842935 32.844946 -6.184928 0.044017 -0.383438 -5.966873 7.125000 0.000000 0.000000 
-1.023629 18.338258 21.422295 179.347658 -0.147131 -149.998560 -42.084179 -28.918553 -24.034647 2.626926 7.732709 18.122067 -0.144696 -10.665743 -34.918799 3.588000 -11.591000 -34.300200 47.901552 28.034569 -21.697079 -2.579407 -6.167863 13.597751 -1.431266 6.600584 -36.372357 -1.295900 7.212500 -20.346500 3.744592 -2.775192 -6.286991 -1.593861 -2.371537 18.750968 6.341575 1.021608 21.870948 1.103100 1.650800 4.395000 -107.011670 -5.539949 18.896831 18.565387 -20.117791 -3.150128 -0.476601 0.354121 -2.474023 -7.125000 0.000000 0.000000 102.768915 -5.271298 13.232716 -22.841391 32.841161 -6.178936 0.046991 -0.383073 -5.817214 7.125000 0.000000 0.000000 
-1.026891 18.339277 21.424130 179.426674 -0.068166 -149.971273 -41.958809 -28.981681 -24.105569 2.628349 7.751891 18.165229 -0.143486 -10.668353 -34.957667 3.449400 -11.389200 -33.604100 47.947206 28.060124 -21.751821 -2.574045 -6.178115 13.627956 -1.393160 6.732463 -36.365791 -1.319600 7.275700 -20.534700 3.796803 -2.791174 -6.212102 -1.564215 -2.382028 18.855552 6.357768 1.044980 21.956944 1.114700 1.668000 4.425900 -106.979639 -5.655082 18.897798 18.625565 -20.210690 -3.173853 -0.477957 0.350141 -2.378883 -7.125000 0.000000 0.000000 102.760893 -5.073676 13.234288 -22.850289 32.854971 -6.179626 0.046817 -0.379557 -5.638750 7.125000 0.000000 0.000000 
